<svg width="33" height="32" viewBox="0 0 33 32" fill="none" xmlns="http://www.w3.org/2000/svg">
<path d="M19.0928 2.83004L21.5678 7.76299C21.9214 8.58514 22.7464 9.17238 23.6892 9.28983L29.1107 10.112C31.35 10.4644 32.2928 13.1658 30.6428 14.8101L26.7535 18.5684C26.0464 19.1557 25.8107 20.0953 25.9285 21.0349L26.8714 26.4377C27.225 28.6693 24.8678 30.4309 22.8642 29.374L18.0321 26.7901C17.2071 26.3202 16.2642 26.3202 15.4392 26.7901L10.6071 29.374C8.60351 30.4309 6.24638 28.6693 6.59995 26.4377L7.54279 21.0349C7.66064 20.0953 7.42495 19.2731 6.71781 18.5684L2.8285 14.8101C1.1785 13.1658 2.12138 10.4644 4.36067 10.112L9.78207 9.28983C10.7249 9.17238 11.4321 8.58514 11.9035 7.76299L14.3785 2.83004C15.2035 0.715916 18.0321 0.715916 19.0928 2.83004Z" fill="black" fill-opacity="0.3" stroke="white" stroke-width="2" stroke-miterlimit="10"/>
</svg>
